<?xml version="1.0" standalone="no"?>
<!DOCTYPE svg PUBLIC "-//W3C//DTD SVG 20010904//EN"
 "http://www.w3.org/TR/2001/REC-SVG-20010904/DTD/svg10.dtd">
<svg version="1.0" xmlns="http://www.w3.org/2000/svg"
 width="820.000000pt" height="820.000000pt" viewBox="0 0 820.000000 820.000000"
 preserveAspectRatio="xMidYMid meet">
<metadata>
Created by potrace 1.11, written by Peter Selinger 2001-2013
</metadata>
<g transform="translate(0.000000,820.000000) scale(0.100000,-0.100000)"
fill="#000000" stroke="none">
<path d="M3610 7465 l0 -245 -492 -2 -493 -3 -3 -247 -2 -248 -245 0 -245 0 0
-245 0 -245 -245 0 -245 0 0 -245 0 -245 -245 0 -245 0 0 -490 0 -490 -245 0
-245 0 0 -740 0 -740 245 0 245 0 0 -490 0 -490 245 0 245 0 0 -250 0 -250
245 0 245 0 0 -245 0 -245 245 0 245 0 0 -245 0 -245 495 0 495 0 0 -245 0
-245 735 0 735 0 0 245 0 245 495 0 495 0 0 245 0 245 245 0 245 0 0 245 0
245 245 0 245 0 0 250 0 250 245 0 245 0 0 245 0 245 -245 0 -245 0 0 245 0
245 -490 0 -490 0 0 245 0 245 -740 0 -740 0 0 245 0 245 738 2 737 3 3 248 2
247 490 0 490 0 0 245 0 245 245 0 245 0 0 245 0 245 -245 0 -245 0 0 245 0
245 -245 0 -245 0 0 245 0 245 -245 0 -245 0 -2 248 -3 247 -492 3 -493 2 0
245 0 245 -735 0 -735 0 0 -245z m1472 -492 l3 -248 493 -3 492 -2 0 -245 0
-245 245 0 245 0 0 -245 0 -245 245 0 245 0 0 -245 0 -245 -490 0 -490 0 0
-245 0 -245 -740 0 -740 0 -2 -247 -3 -248 -487 -3 -488 -2 0 -245 0 -245 490
0 490 0 0 -245 0 -245 740 0 740 0 0 -245 0 -245 490 0 490 0 0 -245 0 -245
-245 0 -245 0 0 -250 0 -250 -245 0 -245 0 0 -245 0 -245 -495 0 -495 0 0
-245 0 -245 -735 0 -735 0 0 245 0 245 -492 2 -493 3 -3 243 -2 242 -245 0
-245 0 0 250 0 250 -245 0 -245 0 0 490 0 490 -245 0 -245 0 0 740 0 740 245
0 245 0 0 490 0 490 245 0 245 0 0 245 0 245 245 0 245 0 0 245 0 245 495 0
495 0 0 243 c0 134 3 247 7 250 3 4 334 7 734 7 l729 0 2 -247z"/>
<path d="M4100 5495 l0 -245 245 0 245 0 0 245 0 245 -245 0 -245 0 0 -245z"/>
</g>
</svg>
